<?xml version="1.0" standalone="no"?>
<!DOCTYPE svg PUBLIC "-//W3C//DTD SVG 20010904//EN"
 "http://www.w3.org/TR/2001/REC-SVG-20010904/DTD/svg10.dtd">
<svg version="1.0" xmlns="http://www.w3.org/2000/svg"
 width="150.000000pt" height="150.000000pt" viewBox="0 0 150.000000 150.000000"
 preserveAspectRatio="xMidYMid meet">
<metadata>
Created by potrace 1.16, written by Peter Selinger 2001-2019
</metadata>
<g transform="translate(0.000000,150.000000) scale(0.100000,-0.100000)"
fill="#000000" stroke="none">
<path d="M772 892 l3 -219 28 -36 c43 -57 76 -70 173 -65 78 3 85 5 117 36 44
43 60 100 55 191 -4 78 -21 110 -78 149 -22 15 -48 22 -78 22 -50 0 -122 -19
-122 -32 0 -4 -4 -8 -10 -8 -5 0 -11 39 -12 88 l-3 87 -38 3 -38 3 3 -219z
m248 -7 c37 -19 54 -76 48 -164 -5 -74 -20 -91 -83 -91 -61 0 -103 18 -120 51
-21 40 -20 182 1 203 20 21 115 21 154 1z"/>
</g>
</svg>
